# xmcd
#
# Track frame offsets:
#	150
#	9307
#	24208
#	36531
#	53278
#	59882
#	78468
#	93583
#	107099
#	119336
#	136386
#	151659
#
# Disc length: 2228 seconds
#
# Revision: 0
# Processed by: cddbd v1.5.1PL0 Copyright (c) Steve Scherf et al.
# Submitted via: dBpowerAMP V4.0
#
DISCID=9208b20c
DTITLE=Buddy Jewell - Nashville Star - (Live)
DYEAR=1900
DGENRE=
TTITLE0=40 Hour Week
TTITLE1=I'm A Cowboy (With Bill Engvall)
TTITLE2=Left At The Light
TTITLE3=Odds Are
TTITLE4=Please Come To Boston
TTITLE5=So Love Me Too
TTITLE6=That'll Never Happen To Us
TTITLE7=Then You Can Tell Me Goodbye
TTITLE8=This Ain't No Thinkin Thing (With Trace Adkins)
TTITLE9=This Time
TTITLE10=Treasure
TTITLE11=Your Lovin Eyes
EXTD=
EXTT0=
EXTT1=
EXTT2=
EXTT3=
EXTT4=
EXTT5=
EXTT6=
EXTT7=
EXTT8=
EXTT9=
EXTT10=
EXTT11=
PLAYORDER=
